<?xml version="1.0" encoding="UTF-8"?>
<svg version="1.1" xmlns="http://www.w3.org/2000/svg" width="123" height="32">
<path d="M0 0 C2.71077722 -0.16300888 5.41166551 -0.28128285 8.125 -0.375 C9.26582031 -0.45041016 9.26582031 -0.45041016 10.4296875 -0.52734375 C14.59320685 -0.63502097 17.30695832 -0.30160414 20.53125 2.46875 C23.84192145 6.32189292 23.69716692 10.00119282 23.375 14.875 C23.34792969 15.65875 23.32085938 16.4425 23.29296875 17.25 C23.22280278 19.16786981 23.11519754 21.0843076 23 23 C20.28922278 23.16300888 17.58833449 23.28128285 14.875 23.375 C13.73417969 23.45041016 13.73417969 23.45041016 12.5703125 23.52734375 C8.40679315 23.63502097 5.69304168 23.30160414 2.46875 20.53125 C-0.84192145 16.67810708 -0.69716692 12.99880718 -0.375 8.125 C-0.34792969 7.34125 -0.32085938 6.5575 -0.29296875 5.75 C-0.22280278 3.83213019 -0.11519754 1.9156924 0 0 Z M7 7 C7 9.64 7 12.28 7 15 C9.64 15 12.28 15 15 15 C15 12.36 15 9.72 15 7 C12.36 7 9.72 7 7 7 Z " fill="#000000" transform="translate(0,3)"/>
<path d="M0 0 C3.00687082 0.79870006 4.15733525 2.04203621 6 4.53125 C6.53125 7.84375 6.53125 7.84375 6.5 11.53125 C6.5103125 12.748125 6.520625 13.965 6.53125 15.21875 C5.91596148 19.05525487 5.04670699 20.20834633 2 22.53125 C-1.03940104 23.62231704 -2.61053967 23.62861508 -5.75 22.84375 C-8 21.53125 -8 21.53125 -8.8125 19.40625 C-8.874375 18.7875 -8.93625 18.16875 -9 17.53125 C-7.9171875 18.0571875 -7.9171875 18.0571875 -6.8125 18.59375 C-3.66532752 19.64280749 -2.11750618 19.57041873 1 18.53125 C1.33 17.87125 1.66 17.21125 2 16.53125 C0.6696875 16.8715625 0.6696875 16.8715625 -0.6875 17.21875 C-4.60651734 17.58846862 -5.93306176 16.89717378 -9 14.53125 C-10.60420518 11.32283965 -10.47462745 8.0118513 -10 4.53125 C-7.44699652 0.2762442 -4.60968987 0.0720264 0 0 Z M-7 5.53125 C-7.50010524 8.48894177 -7.50010524 8.48894177 -7 11.53125 C-5.44202118 13.67907671 -5.44202118 13.67907671 -3 14.53125 C-0.60736593 13.86353817 1.22097385 13.31027615 3 11.53125 C3.25005386 8.57307893 3.25005386 8.57307893 3 5.53125 C1.11499729 3.21561913 1.11499729 3.21561913 -2 3.28125 C-5.11499729 3.21561913 -5.11499729 3.21561913 -7 5.53125 Z " fill="#000000" transform="translate(89,8.46875)"/>
<path d="M0 0 C5.28 0 10.56 0 16 0 C16 2.31 16 4.62 16 7 C13.03 7 10.06 7 7 7 C7 9.97 7 12.94 7 16 C4.69 16 2.38 16 0 16 C0 10.72 0 5.44 0 0 Z " fill="#C8C8C8" transform="translate(0,3)"/>
<path d="M0 0 C2.72235378 1.934304 3.75092091 3.30613681 4.875 6.4375 C5.02932606 9.60118415 4.58872546 11.25583784 3 14 C0.14126272 16.38228107 -1.32477184 17.01378017 -5.0625 16.9375 C-8.52366286 15.83287356 -9.94502229 15.00342896 -12 12 C-12.72125695 7.59231863 -12.52001338 5.74062512 -9.9375 2.0625 C-6.25937488 -0.52001338 -4.40768137 -0.72125695 0 0 Z M-7.8125 4.1875 C-9.44052002 6.67237266 -9.50975499 8.08711432 -9 11 C-7.40383995 13.00965774 -7.40383995 13.00965774 -5 14 C-2.32859537 13.93290716 -2.32859537 13.93290716 0 13 C1.38125018 10.23749964 1.19079306 8.05268901 1 5 C-0.82203581 2.77033253 -0.82203581 2.77033253 -3.4375 2.6875 C-5.99860335 2.80793124 -5.99860335 2.80793124 -7.8125 4.1875 Z " fill="#000000" transform="translate(72,9)"/>
<path d="M0 0 C2.9375 2.0625 2.9375 2.0625 5 5 C5.63127485 8.99807408 5.67917484 11.00735985 3.375 14.375 C0.43721938 16.38506043 -1.4396496 16.92733979 -5 17 C-7.32731556 15.86220128 -9.16840714 14.83159286 -11 13 C-11.52829961 8.7302999 -11.70979336 5.16406111 -9.4375 1.4375 C-6.00082919 -0.58925458 -3.92582814 -0.6198676 0 0 Z M-8 5 C-8.33661952 8.1642235 -8.49943411 10.18513382 -6.8125 12.9375 C-4.97979862 14.24211502 -4.97979862 14.24211502 -2.4375 13.8125 C0.14441272 13.15372967 0.14441272 13.15372967 2 11 C1.90304884 6.65805064 1.90304884 6.65805064 0 3 C-4.49885769 2.53277305 -4.49885769 2.53277305 -8 5 Z " fill="#000000" transform="translate(109,9)"/>
<path d="M0 0 C0.66 0 1.32 0 2 0 C2 6.6 2 13.2 2 20 C5.96 20 9.92 20 14 20 C14.33 20.99 14.66 21.98 15 23 C9.72 23 4.44 23 -1 23 C-1.02682987 19.35411831 -1.04675569 15.70843154 -1.0625 12.0625 C-1.07087891 11.02158203 -1.07925781 9.98066406 -1.08789062 8.90820312 C-1.09272461 7.42416992 -1.09272461 7.42416992 -1.09765625 5.91015625 C-1.10289307 4.99371338 -1.10812988 4.07727051 -1.11352539 3.13305664 C-1 1 -1 1 0 0 Z " fill="#000000" transform="translate(44,2)"/>
</svg>
